<svg width="800" height="450" viewBox="0 0 800 450" fill="none" xmlns="http://www.w3.org/2000/svg">
  <rect width="800" height="450" fill="#0D1117"/>
  <!-- Sidebar -->
  <rect x="0" y="0" width="180" height="450" fill="#0D1117"/>
  <line x1="180" y1="0" x2="180" y2="450" stroke="#B8860B" stroke-width="0.5" stroke-opacity="0.3"/>
  <text x="24" y="38" font-family="Poiret One, serif" font-size="18" fill="#B8860B" letter-spacing="2">PANEL</text>
  <line x1="24" y1="50" x2="156" y2="50" stroke="#B8860B" stroke-width="0.5" stroke-opacity="0.2"/>
  <rect x="0" y="64" width="3" height="24" fill="#B8860B"/>
  <text x="24" y="82" font-family="Raleway, sans-serif" font-size="11" fill="#B8860B" letter-spacing="1">Dashboard</text>
  <text x="24" y="110" font-family="Raleway, sans-serif" font-size="11" fill="#E8DCC8" fill-opacity="0.3" letter-spacing="1">Analytics</text>
  <text x="24" y="138" font-family="Raleway, sans-serif" font-size="11" fill="#E8DCC8" fill-opacity="0.3" letter-spacing="1">Clients</text>
  <text x="24" y="166" font-family="Raleway, sans-serif" font-size="11" fill="#E8DCC8" fill-opacity="0.3" letter-spacing="1">Settings</text>
  <!-- Header -->
  <text x="210" y="34" font-family="Poiret One, serif" font-size="20" fill="#E8DCC8" letter-spacing="2">Dashboard</text>
  <!-- Stat cards -->
  <rect x="210" y="52" width="178" height="88" fill="none" stroke="#B8860B" stroke-width="0.5" stroke-opacity="0.3"/>
  <text x="226" y="76" font-family="Raleway, sans-serif" font-size="10" fill="#E8DCC8" fill-opacity="0.4" letter-spacing="2">CLIENTS</text>
  <text x="226" y="114" font-family="Poiret One, serif" font-size="30" fill="#B8860B">1,247</text>
  <rect x="404" y="52" width="178" height="88" fill="none" stroke="#B8860B" stroke-width="0.5" stroke-opacity="0.3"/>
  <text x="420" y="76" font-family="Raleway, sans-serif" font-size="10" fill="#E8DCC8" fill-opacity="0.4" letter-spacing="2">REVENUE</text>
  <text x="420" y="114" font-family="Poiret One, serif" font-size="30" fill="#E8DCC8">$248K</text>
  <rect x="598" y="52" width="178" height="88" fill="none" stroke="#B8860B" stroke-width="0.5" stroke-opacity="0.3"/>
  <text x="614" y="76" font-family="Raleway, sans-serif" font-size="10" fill="#E8DCC8" fill-opacity="0.4" letter-spacing="2">GROWTH</text>
  <text x="614" y="114" font-family="Poiret One, serif" font-size="30" fill="#C9B037">+18%</text>
  <!-- Chart area -->
  <rect x="210" y="160" width="374" height="270" fill="none" stroke="#B8860B" stroke-width="0.5" stroke-opacity="0.2"/>
  <text x="226" y="188" font-family="Raleway, sans-serif" font-size="10" fill="#E8DCC8" fill-opacity="0.4" letter-spacing="2">PERFORMANCE</text>
  <!-- Art Deco style bars with gold -->
  <rect x="246" y="350" width="24" height="60" fill="#B8860B" fill-opacity="0.15"/>
  <line x1="246" y1="350" x2="270" y2="350" stroke="#B8860B" stroke-width="0.5"/>
  <rect x="290" y="310" width="24" height="100" fill="#B8860B" fill-opacity="0.2"/>
  <line x1="290" y1="310" x2="314" y2="310" stroke="#B8860B" stroke-width="0.5"/>
  <rect x="334" y="270" width="24" height="140" fill="#B8860B" fill-opacity="0.35"/>
  <line x1="334" y1="270" x2="358" y2="270" stroke="#B8860B" stroke-width="0.5"/>
  <rect x="378" y="320" width="24" height="90" fill="#1B3A4B" fill-opacity="0.3"/>
  <rect x="422" y="250" width="24" height="160" fill="#B8860B" fill-opacity="0.4"/>
  <line x1="422" y1="250" x2="446" y2="250" stroke="#B8860B" stroke-width="0.5"/>
  <rect x="466" y="290" width="24" height="120" fill="#B8860B" fill-opacity="0.25"/>
  <rect x="510" y="230" width="24" height="180" fill="#C9B037" fill-opacity="0.3"/>
  <line x1="510" y1="230" x2="534" y2="230" stroke="#C9B037" stroke-width="0.5"/>
  <line x1="236" y1="410" x2="560" y2="410" stroke="#B8860B" stroke-width="0.5" stroke-opacity="0.2"/>
  <!-- Right panel -->
  <rect x="600" y="160" width="176" height="270" fill="none" stroke="#B8860B" stroke-width="0.5" stroke-opacity="0.2"/>
  <text x="616" y="188" font-family="Raleway, sans-serif" font-size="10" fill="#E8DCC8" fill-opacity="0.4" letter-spacing="2">RECENT</text>
  <line x1="608" y1="205" x2="768" y2="205" stroke="#B8860B" stroke-width="0.5" stroke-opacity="0.1"/>
  <text x="616" y="225" font-family="Raleway, sans-serif" font-size="11" fill="#E8DCC8" fill-opacity="0.6">New client</text>
  <line x1="608" y1="238" x2="768" y2="238" stroke="#B8860B" stroke-width="0.5" stroke-opacity="0.1"/>
  <text x="616" y="258" font-family="Raleway, sans-serif" font-size="11" fill="#E8DCC8" fill-opacity="0.6">Payment received</text>
  <line x1="608" y1="271" x2="768" y2="271" stroke="#B8860B" stroke-width="0.5" stroke-opacity="0.1"/>
  <text x="616" y="291" font-family="Raleway, sans-serif" font-size="11" fill="#E8DCC8" fill-opacity="0.6">Contract signed</text>
  <line x1="608" y1="304" x2="768" y2="304" stroke="#B8860B" stroke-width="0.5" stroke-opacity="0.1"/>
  <text x="616" y="324" font-family="Raleway, sans-serif" font-size="11" fill="#E8DCC8" fill-opacity="0.6">Milestone reached</text>
  <line x1="608" y1="337" x2="768" y2="337" stroke="#B8860B" stroke-width="0.5" stroke-opacity="0.1"/>
  <text x="616" y="357" font-family="Raleway, sans-serif" font-size="11" fill="#E8DCC8" fill-opacity="0.6">Report generated</text>
</svg>