<svg width="800" height="450" viewBox="0 0 800 450" fill="none" xmlns="http://www.w3.org/2000/svg">
  <defs>
    <radialGradient id="auc-g1" cx="25%" cy="50%" r="45%">
      <stop offset="0%" stop-color="#7C3AED" stop-opacity="0.4"/>
      <stop offset="100%" stop-color="#7C3AED" stop-opacity="0"/>
    </radialGradient>
    <radialGradient id="auc-g2" cx="75%" cy="40%" r="40%">
      <stop offset="0%" stop-color="#2DD4BF" stop-opacity="0.3"/>
      <stop offset="100%" stop-color="#2DD4BF" stop-opacity="0"/>
    </radialGradient>
    <linearGradient id="auc-border" x1="0" y1="0" x2="1" y2="1">
      <stop offset="0%" stop-color="#7C3AED" stop-opacity="0.5"/>
      <stop offset="50%" stop-color="#2DD4BF" stop-opacity="0.3"/>
      <stop offset="100%" stop-color="#F472B6" stop-opacity="0.5"/>
    </linearGradient>
  </defs>
  <rect width="800" height="450" fill="#0F0B1A"/>
  <rect width="800" height="450" fill="url(#auc-g1)"/>
  <rect width="800" height="450" fill="url(#auc-g2)"/>
  <text x="400" y="40" text-anchor="middle" font-family="Plus Jakarta Sans, sans-serif" font-size="22" font-weight="600" fill="#E2E8F0">What We Offer</text>
  <!-- Card 1 -->
  <rect x="40" y="65" width="230" height="350" rx="16" fill="#1A1530" fill-opacity="0.6" stroke="url(#auc-border)" stroke-width="1"/>
  <circle cx="155" cy="135" r="30" fill="#7C3AED" opacity="0.3"/>
  <circle cx="155" cy="135" r="14" fill="#7C3AED"/>
  <text x="155" y="195" text-anchor="middle" font-family="Plus Jakarta Sans, sans-serif" font-size="18" font-weight="600" fill="#E2E8F0">Insights</text>
  <text x="155" y="220" text-anchor="middle" font-family="Inter, sans-serif" font-size="12" fill="#E2E8F0" opacity="0.5">Real-time analytics with</text>
  <text x="155" y="238" text-anchor="middle" font-family="Inter, sans-serif" font-size="12" fill="#E2E8F0" opacity="0.5">ambient visualizations.</text>
  <rect x="70" y="270" width="170" height="8" rx="4" fill="#1A1530"/>
  <rect x="70" y="270" width="120" height="8" rx="4" fill="#7C3AED" opacity="0.5"/>
  <rect x="75" y="330" width="160" height="36" rx="18" fill="#7C3AED" opacity="0.2" stroke="#7C3AED" stroke-width="1" stroke-opacity="0.4"/>
  <text x="155" y="353" text-anchor="middle" font-family="Inter, sans-serif" font-size="13" font-weight="500" fill="#E2E8F0">Learn More</text>
  <!-- Card 2 -->
  <rect x="285" y="65" width="230" height="350" rx="16" fill="#1A1530" fill-opacity="0.6" stroke="url(#auc-border)" stroke-width="1"/>
  <circle cx="400" cy="135" r="30" fill="#2DD4BF" opacity="0.3"/>
  <circle cx="400" cy="135" r="14" fill="#2DD4BF"/>
  <text x="400" y="195" text-anchor="middle" font-family="Plus Jakarta Sans, sans-serif" font-size="18" font-weight="600" fill="#E2E8F0">Connect</text>
  <text x="400" y="220" text-anchor="middle" font-family="Inter, sans-serif" font-size="12" fill="#E2E8F0" opacity="0.5">Seamless integration with</text>
  <text x="400" y="238" text-anchor="middle" font-family="Inter, sans-serif" font-size="12" fill="#E2E8F0" opacity="0.5">your favorite tools.</text>
  <rect x="315" y="270" width="170" height="8" rx="4" fill="#1A1530"/>
  <rect x="315" y="270" width="140" height="8" rx="4" fill="#2DD4BF" opacity="0.5"/>
  <rect x="320" y="330" width="160" height="36" rx="18" fill="#2DD4BF" opacity="0.2" stroke="#2DD4BF" stroke-width="1" stroke-opacity="0.4"/>
  <text x="400" y="353" text-anchor="middle" font-family="Inter, sans-serif" font-size="13" font-weight="500" fill="#E2E8F0">Learn More</text>
  <!-- Card 3 -->
  <rect x="530" y="65" width="230" height="350" rx="16" fill="#1A1530" fill-opacity="0.6" stroke="url(#auc-border)" stroke-width="1"/>
  <circle cx="645" cy="135" r="30" fill="#F472B6" opacity="0.3"/>
  <circle cx="645" cy="135" r="14" fill="#F472B6"/>
  <text x="645" y="195" text-anchor="middle" font-family="Plus Jakarta Sans, sans-serif" font-size="18" font-weight="600" fill="#E2E8F0">Automate</text>
  <text x="645" y="220" text-anchor="middle" font-family="Inter, sans-serif" font-size="12" fill="#E2E8F0" opacity="0.5">Workflow automation that</text>
  <text x="645" y="238" text-anchor="middle" font-family="Inter, sans-serif" font-size="12" fill="#E2E8F0" opacity="0.5">saves you hours daily.</text>
  <rect x="560" y="270" width="170" height="8" rx="4" fill="#1A1530"/>
  <rect x="560" y="270" width="100" height="8" rx="4" fill="#F472B6" opacity="0.5"/>
  <rect x="565" y="330" width="160" height="36" rx="18" fill="#F472B6" opacity="0.2" stroke="#F472B6" stroke-width="1" stroke-opacity="0.4"/>
  <text x="645" y="353" text-anchor="middle" font-family="Inter, sans-serif" font-size="13" font-weight="500" fill="#E2E8F0">Learn More</text>
</svg>
