<svg width="800" height="450" viewBox="0 0 800 450" fill="none" xmlns="http://www.w3.org/2000/svg">
  <defs>
    <radialGradient id="aud-g1" cx="20%" cy="30%" r="40%">
      <stop offset="0%" stop-color="#7C3AED" stop-opacity="0.35"/>
      <stop offset="100%" stop-color="#7C3AED" stop-opacity="0"/>
    </radialGradient>
    <radialGradient id="aud-g2" cx="80%" cy="70%" r="35%">
      <stop offset="0%" stop-color="#2DD4BF" stop-opacity="0.25"/>
      <stop offset="100%" stop-color="#2DD4BF" stop-opacity="0"/>
    </radialGradient>
    <linearGradient id="aud-border" x1="0" y1="0" x2="1" y2="1">
      <stop offset="0%" stop-color="#7C3AED" stop-opacity="0.4"/>
      <stop offset="100%" stop-color="#2DD4BF" stop-opacity="0.2"/>
    </linearGradient>
  </defs>
  <rect width="800" height="450" fill="#0F0B1A"/>
  <rect width="800" height="450" fill="url(#aud-g1)"/>
  <rect width="800" height="450" fill="url(#aud-g2)"/>
  <!-- Sidebar -->
  <rect x="0" y="0" width="180" height="450" fill="#1A1530" fill-opacity="0.5" stroke="#7C3AED" stroke-width="1" stroke-opacity="0.15"/>
  <text x="90" y="35" text-anchor="middle" font-family="Plus Jakarta Sans, sans-serif" font-size="16" font-weight="700" fill="#E2E8F0">Aurora</text>
  <rect x="12" y="55" width="156" height="34" rx="10" fill="#7C3AED" opacity="0.15"/>
  <text x="90" y="77" text-anchor="middle" font-family="Inter, sans-serif" font-size="12" font-weight="500" fill="#7C3AED">Dashboard</text>
  <text x="90" y="115" text-anchor="middle" font-family="Inter, sans-serif" font-size="12" fill="#E2E8F0" opacity="0.35">Analytics</text>
  <text x="90" y="145" text-anchor="middle" font-family="Inter, sans-serif" font-size="12" fill="#E2E8F0" opacity="0.35">Projects</text>
  <text x="90" y="175" text-anchor="middle" font-family="Inter, sans-serif" font-size="12" fill="#E2E8F0" opacity="0.35">Settings</text>
  <!-- Stat cards -->
  <rect x="200" y="15" width="185" height="80" rx="12" fill="#1A1530" fill-opacity="0.5" stroke="url(#aud-border)" stroke-width="1"/>
  <text x="292" y="48" text-anchor="middle" font-family="Plus Jakarta Sans, sans-serif" font-size="22" font-weight="700" fill="#7C3AED">3.2k</text>
  <text x="292" y="70" text-anchor="middle" font-family="Inter, sans-serif" font-size="11" fill="#E2E8F0" opacity="0.4">Users</text>
  <rect x="400" y="15" width="185" height="80" rx="12" fill="#1A1530" fill-opacity="0.5" stroke="url(#aud-border)" stroke-width="1"/>
  <text x="492" y="48" text-anchor="middle" font-family="Plus Jakarta Sans, sans-serif" font-size="22" font-weight="700" fill="#2DD4BF">$18k</text>
  <text x="492" y="70" text-anchor="middle" font-family="Inter, sans-serif" font-size="11" fill="#E2E8F0" opacity="0.4">Revenue</text>
  <rect x="600" y="15" width="180" height="80" rx="12" fill="#1A1530" fill-opacity="0.5" stroke="url(#aud-border)" stroke-width="1"/>
  <text x="690" y="48" text-anchor="middle" font-family="Plus Jakarta Sans, sans-serif" font-size="22" font-weight="700" fill="#F472B6">97%</text>
  <text x="690" y="70" text-anchor="middle" font-family="Inter, sans-serif" font-size="11" fill="#E2E8F0" opacity="0.4">Satisfaction</text>
  <!-- Chart panel -->
  <rect x="200" y="110" width="380" height="320" rx="14" fill="#1A1530" fill-opacity="0.4" stroke="url(#aud-border)" stroke-width="1"/>
  <text x="225" y="140" font-family="Plus Jakarta Sans, sans-serif" font-size="14" font-weight="600" fill="#E2E8F0">Performance</text>
  <!-- Chart line -->
  <polyline points="230,310 280,280 330,290 380,250 430,230 480,200 530,215" stroke="#7C3AED" stroke-width="2.5" fill="none"/>
  <polygon points="230,310 280,280 330,290 380,250 430,230 480,200 530,215 530,370 230,370" fill="#7C3AED" opacity="0.08"/>
  <polyline points="230,330 280,310 330,315 380,295 430,280 480,260 530,270" stroke="#2DD4BF" stroke-width="1.5" fill="none" opacity="0.5"/>
  <!-- Activity -->
  <rect x="600" y="110" width="180" height="320" rx="14" fill="#1A1530" fill-opacity="0.4" stroke="url(#aud-border)" stroke-width="1"/>
  <text x="620" y="140" font-family="Plus Jakarta Sans, sans-serif" font-size="13" font-weight="600" fill="#E2E8F0">Activity</text>
  <circle cx="620" cy="170" r="4" fill="#7C3AED"/>
  <text x="635" y="174" font-family="Inter, sans-serif" font-size="11" fill="#E2E8F0" opacity="0.4">New signup</text>
  <circle cx="620" cy="200" r="4" fill="#2DD4BF"/>
  <text x="635" y="204" font-family="Inter, sans-serif" font-size="11" fill="#E2E8F0" opacity="0.4">Payment</text>
  <circle cx="620" cy="230" r="4" fill="#F472B6"/>
  <text x="635" y="234" font-family="Inter, sans-serif" font-size="11" fill="#E2E8F0" opacity="0.4">Feedback</text>
  <circle cx="620" cy="260" r="4" fill="#7C3AED"/>
  <text x="635" y="264" font-family="Inter, sans-serif" font-size="11" fill="#E2E8F0" opacity="0.4">Deploy</text>
</svg>
