<svg width="800" height="450" viewBox="0 0 800 450" fill="none" xmlns="http://www.w3.org/2000/svg">
  <defs>
    <filter id="cc-shadow" x="-10%" y="-10%" width="130%" height="130%">
      <feDropShadow dx="0" dy="8" stdDeviation="12" flood-color="#94A3B8" flood-opacity="0.15"/>
    </filter>
  </defs>
  <rect width="800" height="450" fill="#F1F5F9"/>
  <text x="400" y="42" font-family="Nunito, sans-serif" font-size="24" font-weight="700" fill="#334155" text-anchor="middle">Features</text>
  <!-- Card 1 -->
  <rect x="50" y="70" width="220" height="320" rx="24" fill="#FFFFFF" filter="url(#cc-shadow)"/>
  <rect x="54" y="74" width="212" height="4" rx="2" fill="white" fill-opacity="0.9"/>
  <circle cx="160" cy="140" r="32" fill="#6366F1" fill-opacity="0.12"/>
  <circle cx="160" cy="140" r="18" fill="#6366F1" fill-opacity="0.2"/>
  <text x="160" y="210" font-family="Nunito, sans-serif" font-size="18" font-weight="700" fill="#334155" text-anchor="middle">Fast Setup</text>
  <text x="160" y="236" font-family="Nunito, sans-serif" font-size="13" fill="#334155" fill-opacity="0.6" text-anchor="middle">Get running in minutes</text>
  <text x="160" y="256" font-family="Nunito, sans-serif" font-size="13" fill="#334155" fill-opacity="0.6" text-anchor="middle">with zero config.</text>
  <rect x="105" y="310" width="110" height="40" rx="20" fill="#6366F1" filter="url(#cc-shadow)"/>
  <rect x="107" y="312" width="106" height="3" rx="1.5" fill="white" fill-opacity="0.3"/>
  <text x="160" y="336" font-family="Nunito, sans-serif" font-size="13" font-weight="600" fill="#FFFFFF" text-anchor="middle">Read More</text>
  <!-- Card 2 -->
  <rect x="290" y="70" width="220" height="320" rx="24" fill="#FFFFFF" filter="url(#cc-shadow)"/>
  <rect x="294" y="74" width="212" height="4" rx="2" fill="white" fill-opacity="0.9"/>
  <circle cx="400" cy="140" r="32" fill="#EC4899" fill-opacity="0.12"/>
  <circle cx="400" cy="140" r="18" fill="#EC4899" fill-opacity="0.2"/>
  <text x="400" y="210" font-family="Nunito, sans-serif" font-size="18" font-weight="700" fill="#334155" text-anchor="middle">Customizable</text>
  <text x="400" y="236" font-family="Nunito, sans-serif" font-size="13" fill="#334155" fill-opacity="0.6" text-anchor="middle">Adapt every detail to</text>
  <text x="400" y="256" font-family="Nunito, sans-serif" font-size="13" fill="#334155" fill-opacity="0.6" text-anchor="middle">match your brand.</text>
  <rect x="345" y="310" width="110" height="40" rx="20" fill="#EC4899" filter="url(#cc-shadow)"/>
  <rect x="347" y="312" width="106" height="3" rx="1.5" fill="white" fill-opacity="0.3"/>
  <text x="400" y="336" font-family="Nunito, sans-serif" font-size="13" font-weight="600" fill="#FFFFFF" text-anchor="middle">Read More</text>
  <!-- Card 3 -->
  <rect x="530" y="70" width="220" height="320" rx="24" fill="#FFFFFF" filter="url(#cc-shadow)"/>
  <rect x="534" y="74" width="212" height="4" rx="2" fill="white" fill-opacity="0.9"/>
  <circle cx="640" cy="140" r="32" fill="#F59E0B" fill-opacity="0.12"/>
  <circle cx="640" cy="140" r="18" fill="#F59E0B" fill-opacity="0.2"/>
  <text x="640" y="210" font-family="Nunito, sans-serif" font-size="18" font-weight="700" fill="#334155" text-anchor="middle">Open Source</text>
  <text x="640" y="236" font-family="Nunito, sans-serif" font-size="13" fill="#334155" fill-opacity="0.6" text-anchor="middle">Free forever with a</text>
  <text x="640" y="256" font-family="Nunito, sans-serif" font-size="13" fill="#334155" fill-opacity="0.6" text-anchor="middle">vibrant community.</text>
  <rect x="585" y="310" width="110" height="40" rx="20" fill="#F59E0B" filter="url(#cc-shadow)"/>
  <rect x="587" y="312" width="106" height="3" rx="1.5" fill="white" fill-opacity="0.3"/>
  <text x="640" y="336" font-family="Nunito, sans-serif" font-size="13" font-weight="600" fill="#FFFFFF" text-anchor="middle">Read More</text>
</svg>