<svg width="800" height="450" viewBox="0 0 800 450" fill="none" xmlns="http://www.w3.org/2000/svg">
  <defs>
    <filter id="cpd-gg"><feGaussianBlur stdDeviation="2" result="b"/><feMerge><feMergeNode in="b"/><feMergeNode in="SourceGraphic"/></feMerge></filter>
    <filter id="cpd-gp"><feGaussianBlur stdDeviation="2" result="b"/><feMerge><feMergeNode in="b"/><feMergeNode in="SourceGraphic"/></feMerge></filter>
  </defs>
  <rect width="800" height="450" fill="#0D0D0D"/>
  <!-- Sidebar -->
  <rect x="0" y="0" width="170" height="450" fill="none" stroke="#00FF41" stroke-width="1" opacity="0.4"/>
  <text x="85" y="30" text-anchor="middle" font-family="Rajdhani, sans-serif" font-size="16" font-weight="700" fill="#00FF41" filter="url(#cpd-gg)">GRID_OS</text>
  <line x1="10" y1="42" x2="160" y2="42" stroke="#00FF41" stroke-width="0.5" opacity="0.3"/>
  <rect x="8" y="52" width="154" height="30" fill="#00FF41" opacity="0.08"/>
  <text x="85" y="72" text-anchor="middle" font-family="Share Tech Mono, monospace" font-size="11" fill="#00FF41">OVERVIEW</text>
  <text x="85" y="105" text-anchor="middle" font-family="Share Tech Mono, monospace" font-size="11" fill="#C0C0C0">NEURAL_NET</text>
  <text x="85" y="130" text-anchor="middle" font-family="Share Tech Mono, monospace" font-size="11" fill="#C0C0C0">CRYPTO</text>
  <text x="85" y="155" text-anchor="middle" font-family="Share Tech Mono, monospace" font-size="11" fill="#C0C0C0">SETTINGS</text>
  <!-- Top stat panels -->
  <rect x="185" y="10" width="195" height="75" fill="none" stroke="#00FF41" stroke-width="1" opacity="0.5"/>
  <text x="282" y="40" text-anchor="middle" font-family="Rajdhani, sans-serif" font-size="26" font-weight="700" fill="#00FF41" filter="url(#cpd-gg)">2,048</text>
  <text x="282" y="60" text-anchor="middle" font-family="Share Tech Mono, monospace" font-size="10" fill="#C0C0C0">ACTIVE_NODES</text>
  <rect x="395" y="10" width="195" height="75" fill="none" stroke="#FF0090" stroke-width="1" opacity="0.5"/>
  <text x="492" y="40" text-anchor="middle" font-family="Rajdhani, sans-serif" font-size="26" font-weight="700" fill="#FF0090" filter="url(#cpd-gp)">847.3</text>
  <text x="492" y="60" text-anchor="middle" font-family="Share Tech Mono, monospace" font-size="10" fill="#C0C0C0">CRYPTO_BAL</text>
  <rect x="605" y="10" width="180" height="75" fill="none" stroke="#00D4FF" stroke-width="1" opacity="0.5"/>
  <text x="695" y="40" text-anchor="middle" font-family="Rajdhani, sans-serif" font-size="26" font-weight="700" fill="#00D4FF">99.7%</text>
  <text x="695" y="60" text-anchor="middle" font-family="Share Tech Mono, monospace" font-size="10" fill="#C0C0C0">SYNC_RATE</text>
  <!-- Main chart panel -->
  <rect x="185" y="100" width="400" height="330" fill="none" stroke="#00FF41" stroke-width="1" opacity="0.3"/>
  <text x="205" y="125" font-family="Rajdhani, sans-serif" font-size="14" font-weight="700" fill="#00FF41">NETWORK_ACTIVITY</text>
  <!-- Chart line -->
  <polyline points="210,280 260,250 310,260 360,220 410,240 460,190 510,210 545,195" stroke="#00FF41" stroke-width="2" fill="none" filter="url(#cpd-gg)"/>
  <polyline points="210,300 260,290 310,295 360,270 410,285 460,255 510,265 545,250" stroke="#FF0090" stroke-width="1.5" fill="none" opacity="0.6"/>
  <!-- Grid lines -->
  <line x1="210" y1="340" x2="555" y2="340" stroke="#C0C0C0" stroke-width="0.3" opacity="0.2"/>
  <line x1="210" y1="280" x2="555" y2="280" stroke="#C0C0C0" stroke-width="0.3" opacity="0.2"/>
  <line x1="210" y1="220" x2="555" y2="220" stroke="#C0C0C0" stroke-width="0.3" opacity="0.2"/>
  <!-- Activity feed -->
  <rect x="600" y="100" width="185" height="330" fill="none" stroke="#00D4FF" stroke-width="1" opacity="0.3"/>
  <text x="620" y="125" font-family="Rajdhani, sans-serif" font-size="13" font-weight="700" fill="#00D4FF">LIVE_FEED</text>
  <text x="610" y="155" font-family="Share Tech Mono, monospace" font-size="10" fill="#00FF41">[OK] Node connected</text>
  <text x="610" y="180" font-family="Share Tech Mono, monospace" font-size="10" fill="#C0C0C0">[--] Data transfer</text>
  <text x="610" y="205" font-family="Share Tech Mono, monospace" font-size="10" fill="#FF0090">[!!] Breach attempt</text>
  <text x="610" y="230" font-family="Share Tech Mono, monospace" font-size="10" fill="#00FF41">[OK] Firewall update</text>
  <text x="610" y="255" font-family="Share Tech Mono, monospace" font-size="10" fill="#C0C0C0">[--] Crypto mining</text>
  <text x="610" y="280" font-family="Share Tech Mono, monospace" font-size="10" fill="#00D4FF">[>>] New deploy</text>
</svg>
