<svg width="800" height="450" viewBox="0 0 800 450" fill="none" xmlns="http://www.w3.org/2000/svg">
  <rect width="800" height="450" fill="#121212"/>
  <text x="400" y="45" text-anchor="middle" font-family="Inter, sans-serif" font-size="22" font-weight="600" fill="#E1E1E1">Featured Cards</text>
  <!-- Card 1 -->
  <rect x="40" y="70" width="230" height="340" rx="12" fill="#1E1E1E"/>
  <rect x="40" y="70" width="230" height="4" rx="2" fill="#BB86FC"/>
  <rect x="60" y="95" width="190" height="110" rx="8" fill="#2C2C2C"/>
  <circle cx="155" cy="150" r="24" fill="#BB86FC" opacity="0.2"/>
  <circle cx="155" cy="150" r="12" fill="#BB86FC"/>
  <text x="155" y="235" text-anchor="middle" font-family="Inter, sans-serif" font-size="18" font-weight="600" fill="#E1E1E1">Analytics</text>
  <text x="155" y="258" text-anchor="middle" font-family="Inter, sans-serif" font-size="12" fill="#9E9E9E">Track performance metrics</text>
  <text x="155" y="278" text-anchor="middle" font-family="Inter, sans-serif" font-size="12" fill="#9E9E9E">across all channels.</text>
  <rect x="60" y="310" width="190" height="1" fill="#2C2C2C"/>
  <text x="155" y="345" text-anchor="middle" font-family="Inter, sans-serif" font-size="28" font-weight="700" fill="#BB86FC">2,847</text>
  <text x="155" y="370" text-anchor="middle" font-family="Inter, sans-serif" font-size="11" fill="#9E9E9E">Active sessions</text>
  <!-- Card 2 -->
  <rect x="285" y="70" width="230" height="340" rx="12" fill="#1E1E1E"/>
  <rect x="285" y="70" width="230" height="4" rx="2" fill="#03DAC6"/>
  <rect x="305" y="95" width="190" height="110" rx="8" fill="#2C2C2C"/>
  <circle cx="400" cy="150" r="24" fill="#03DAC6" opacity="0.2"/>
  <circle cx="400" cy="150" r="12" fill="#03DAC6"/>
  <text x="400" y="235" text-anchor="middle" font-family="Inter, sans-serif" font-size="18" font-weight="600" fill="#E1E1E1">Revenue</text>
  <text x="400" y="258" text-anchor="middle" font-family="Inter, sans-serif" font-size="12" fill="#9E9E9E">Monthly revenue overview</text>
  <text x="400" y="278" text-anchor="middle" font-family="Inter, sans-serif" font-size="12" fill="#9E9E9E">with growth tracking.</text>
  <rect x="305" y="310" width="190" height="1" fill="#2C2C2C"/>
  <text x="400" y="345" text-anchor="middle" font-family="Inter, sans-serif" font-size="28" font-weight="700" fill="#03DAC6">$14.2k</text>
  <text x="400" y="370" text-anchor="middle" font-family="Inter, sans-serif" font-size="11" fill="#9E9E9E">This month</text>
  <!-- Card 3 -->
  <rect x="530" y="70" width="230" height="340" rx="12" fill="#1E1E1E"/>
  <rect x="530" y="70" width="230" height="4" rx="2" fill="#CF6679"/>
  <rect x="550" y="95" width="190" height="110" rx="8" fill="#2C2C2C"/>
  <circle cx="645" cy="150" r="24" fill="#CF6679" opacity="0.2"/>
  <circle cx="645" cy="150" r="12" fill="#CF6679"/>
  <text x="645" y="235" text-anchor="middle" font-family="Inter, sans-serif" font-size="18" font-weight="600" fill="#E1E1E1">Alerts</text>
  <text x="645" y="258" text-anchor="middle" font-family="Inter, sans-serif" font-size="12" fill="#9E9E9E">Critical notifications that</text>
  <text x="645" y="278" text-anchor="middle" font-family="Inter, sans-serif" font-size="12" fill="#9E9E9E">require your attention.</text>
  <rect x="550" y="310" width="190" height="1" fill="#2C2C2C"/>
  <text x="645" y="345" text-anchor="middle" font-family="Inter, sans-serif" font-size="28" font-weight="700" fill="#CF6679">12</text>
  <text x="645" y="370" text-anchor="middle" font-family="Inter, sans-serif" font-size="11" fill="#9E9E9E">Pending actions</text>
</svg>
