<svg width="800" height="450" viewBox="0 0 800 450" fill="none" xmlns="http://www.w3.org/2000/svg">
  <rect width="800" height="450" fill="#F8FAFC"/>
  <text x="60" y="36" font-family="Inter, sans-serif" font-size="20" font-weight="600" fill="#0F172A">Features</text>
  <!-- Card 1 -->
  <rect x="50" y="56" width="220" height="340" rx="4" fill="#FFFFFF" stroke="#E2E8F0" stroke-width="1"/>
  <rect x="50" y="56" width="220" height="4" fill="#2563EB"/>
  <rect x="70" y="80" width="36" height="36" rx="4" fill="#2563EB" fill-opacity="0.08"/>
  <rect x="80" y="90" width="16" height="16" rx="2" fill="#2563EB" fill-opacity="0.2"/>
  <text x="70" y="148" font-family="Inter, sans-serif" font-size="16" font-weight="600" fill="#0F172A">Fast Setup</text>
  <text x="70" y="172" font-family="Inter, sans-serif" font-size="13" fill="#475569">Get running in minutes with</text>
  <text x="70" y="192" font-family="Inter, sans-serif" font-size="13" fill="#475569">zero configuration needed.</text>
  <text x="70" y="212" font-family="Inter, sans-serif" font-size="13" fill="#475569">Streamlined onboarding.</text>
  <rect x="70" y="330" width="90" height="32" rx="4" fill="#2563EB"/>
  <text x="115" y="352" font-family="Inter, sans-serif" font-size="13" font-weight="500" fill="#FFFFFF" text-anchor="middle">Read More</text>
  <!-- Card 2 -->
  <rect x="290" y="56" width="220" height="340" rx="4" fill="#FFFFFF" stroke="#E2E8F0" stroke-width="1"/>
  <rect x="290" y="56" width="220" height="4" fill="#059669"/>
  <rect x="310" y="80" width="36" height="36" rx="4" fill="#059669" fill-opacity="0.08"/>
  <rect x="320" y="90" width="16" height="16" rx="2" fill="#059669" fill-opacity="0.2"/>
  <text x="310" y="148" font-family="Inter, sans-serif" font-size="16" font-weight="600" fill="#0F172A">Customizable</text>
  <text x="310" y="172" font-family="Inter, sans-serif" font-size="13" fill="#475569">Full theme control to match</text>
  <text x="310" y="192" font-family="Inter, sans-serif" font-size="13" fill="#475569">your brand guidelines and</text>
  <text x="310" y="212" font-family="Inter, sans-serif" font-size="13" fill="#475569">design system tokens.</text>
  <rect x="310" y="330" width="90" height="32" rx="4" fill="#2563EB"/>
  <text x="355" y="352" font-family="Inter, sans-serif" font-size="13" font-weight="500" fill="#FFFFFF" text-anchor="middle">Read More</text>
  <!-- Card 3 -->
  <rect x="530" y="56" width="220" height="340" rx="4" fill="#FFFFFF" stroke="#E2E8F0" stroke-width="1"/>
  <rect x="530" y="56" width="220" height="4" fill="#475569"/>
  <rect x="550" y="80" width="36" height="36" rx="4" fill="#475569" fill-opacity="0.08"/>
  <rect x="560" y="90" width="16" height="16" rx="2" fill="#475569" fill-opacity="0.2"/>
  <text x="550" y="148" font-family="Inter, sans-serif" font-size="16" font-weight="600" fill="#0F172A">Accessible</text>
  <text x="550" y="172" font-family="Inter, sans-serif" font-size="13" fill="#475569">WCAG AA compliant with</text>
  <text x="550" y="192" font-family="Inter, sans-serif" font-size="13" fill="#475569">proper contrast ratios</text>
  <text x="550" y="212" font-family="Inter, sans-serif" font-size="13" fill="#475569">across all components.</text>
  <rect x="550" y="330" width="90" height="32" rx="4" fill="#2563EB"/>
  <text x="595" y="352" font-family="Inter, sans-serif" font-size="13" font-weight="500" fill="#FFFFFF" text-anchor="middle">Read More</text>
</svg>