<svg width="800" height="450" viewBox="0 0 800 450" fill="none" xmlns="http://www.w3.org/2000/svg">
  <rect width="800" height="450" fill="#0A0A0A"/>
  <!-- Sidebar -->
  <rect x="0" y="0" width="180" height="450" fill="#0D0D0D"/>
  <line x1="180" y1="0" x2="180" y2="450" stroke="#D4AF37" stroke-width="0.5" stroke-opacity="0.2"/>
  <text x="24" y="40" font-family="Playfair Display, Georgia, serif" font-size="18" fill="#D4AF37" letter-spacing="1">PANEL</text>
  <line x1="24" y1="52" x2="156" y2="52" stroke="#D4AF37" stroke-width="0.5" stroke-opacity="0.2"/>
  <rect x="0" y="68" width="3" height="24" fill="#D4AF37"/>
  <text x="24" y="86" font-family="Lato, sans-serif" font-size="12" fill="#D4AF37" letter-spacing="1">Dashboard</text>
  <text x="24" y="116" font-family="Lato, sans-serif" font-size="12" fill="#C0C0C0" fill-opacity="0.4" letter-spacing="1">Analytics</text>
  <text x="24" y="146" font-family="Lato, sans-serif" font-size="12" fill="#C0C0C0" fill-opacity="0.4" letter-spacing="1">Clients</text>
  <text x="24" y="176" font-family="Lato, sans-serif" font-size="12" fill="#C0C0C0" fill-opacity="0.4" letter-spacing="1">Settings</text>
  <!-- Header -->
  <text x="210" y="36" font-family="Playfair Display, Georgia, serif" font-size="20" fill="#E5E5E5" letter-spacing="1">Dashboard</text>
  <!-- Stat cards -->
  <rect x="210" y="56" width="180" height="90" fill="none" stroke="#D4AF37" stroke-width="0.5" stroke-opacity="0.2"/>
  <text x="228" y="80" font-family="Lato, sans-serif" font-size="10" fill="#C0C0C0" fill-opacity="0.5" letter-spacing="2">CLIENTS</text>
  <text x="228" y="118" font-family="Playfair Display, Georgia, serif" font-size="30" fill="#D4AF37">1,247</text>
  <rect x="405" y="56" width="180" height="90" fill="none" stroke="#D4AF37" stroke-width="0.5" stroke-opacity="0.2"/>
  <text x="423" y="80" font-family="Lato, sans-serif" font-size="10" fill="#C0C0C0" fill-opacity="0.5" letter-spacing="2">REVENUE</text>
  <text x="423" y="118" font-family="Playfair Display, Georgia, serif" font-size="30" fill="#E5E5E5">$248K</text>
  <rect x="600" y="56" width="180" height="90" fill="none" stroke="#D4AF37" stroke-width="0.5" stroke-opacity="0.2"/>
  <text x="618" y="80" font-family="Lato, sans-serif" font-size="10" fill="#C0C0C0" fill-opacity="0.5" letter-spacing="2">GROWTH</text>
  <text x="618" y="118" font-family="Playfair Display, Georgia, serif" font-size="30" fill="#D4AF37">+18%</text>
  <!-- Chart area -->
  <rect x="210" y="166" width="375" height="264" fill="none" stroke="#D4AF37" stroke-width="0.5" stroke-opacity="0.15"/>
  <text x="228" y="194" font-family="Lato, sans-serif" font-size="10" fill="#C0C0C0" fill-opacity="0.5" letter-spacing="2">PERFORMANCE</text>
  <!-- Line chart -->
  <polyline points="240,380 290,350 340,360 390,310 440,330 490,280 540,300" stroke="#D4AF37" stroke-width="1.5" fill="none"/>
  <polyline points="240,390 290,380 340,385 390,360 440,370 490,350 540,355" stroke="#C0C0C0" stroke-width="1" fill="none" stroke-opacity="0.3" stroke-dasharray="4,3"/>
  <!-- Grid lines -->
  <line x1="240" y1="400" x2="560" y2="400" stroke="#D4AF37" stroke-width="0.5" stroke-opacity="0.1"/>
  <line x1="240" y1="340" x2="560" y2="340" stroke="#D4AF37" stroke-width="0.5" stroke-opacity="0.05"/>
  <line x1="240" y1="280" x2="560" y2="280" stroke="#D4AF37" stroke-width="0.5" stroke-opacity="0.05"/>
  <!-- Right panel -->
  <rect x="600" y="166" width="180" height="264" fill="none" stroke="#D4AF37" stroke-width="0.5" stroke-opacity="0.15"/>
  <text x="618" y="194" font-family="Lato, sans-serif" font-size="10" fill="#C0C0C0" fill-opacity="0.5" letter-spacing="2">RECENT</text>
  <line x1="612" y1="215" x2="768" y2="215" stroke="#D4AF37" stroke-width="0.5" stroke-opacity="0.1"/>
  <text x="618" y="235" font-family="Lato, sans-serif" font-size="11" fill="#E5E5E5">New client onboarded</text>
  <line x1="612" y1="250" x2="768" y2="250" stroke="#D4AF37" stroke-width="0.5" stroke-opacity="0.1"/>
  <text x="618" y="270" font-family="Lato, sans-serif" font-size="11" fill="#E5E5E5">Payment received</text>
  <line x1="612" y1="285" x2="768" y2="285" stroke="#D4AF37" stroke-width="0.5" stroke-opacity="0.1"/>
  <text x="618" y="305" font-family="Lato, sans-serif" font-size="11" fill="#E5E5E5">Contract signed</text>
  <line x1="612" y1="320" x2="768" y2="320" stroke="#D4AF37" stroke-width="0.5" stroke-opacity="0.1"/>
  <text x="618" y="340" font-family="Lato, sans-serif" font-size="11" fill="#E5E5E5">Milestone reached</text>
  <line x1="612" y1="355" x2="768" y2="355" stroke="#D4AF37" stroke-width="0.5" stroke-opacity="0.1"/>
  <text x="618" y="375" font-family="Lato, sans-serif" font-size="11" fill="#E5E5E5">Report generated</text>
</svg>