<svg width="800" height="450" viewBox="0 0 800 450" fill="none" xmlns="http://www.w3.org/2000/svg">
  <rect width="800" height="450" fill="#FFFFFF"/>
  <!-- Background pattern dots -->
  <circle cx="30" cy="30" r="3" fill="#FF6B6B" fill-opacity="0.2"/>
  <circle cx="50" cy="30" r="3" fill="#FF6B6B" fill-opacity="0.2"/>
  <circle cx="70" cy="30" r="3" fill="#FF6B6B" fill-opacity="0.2"/>
  <circle cx="30" cy="50" r="3" fill="#FF6B6B" fill-opacity="0.2"/>
  <circle cx="50" cy="50" r="3" fill="#FF6B6B" fill-opacity="0.2"/>
  <circle cx="70" cy="50" r="3" fill="#FF6B6B" fill-opacity="0.2"/>
  <!-- Title -->
  <text x="400" y="48" font-family="Fredoka One, sans-serif" font-size="28" fill="#2D2D2D" text-anchor="middle">Features!</text>
  <path d="M310 56 Q400 66 490 56" stroke="#FF6B6B" stroke-width="3" fill="none"/>
  <!-- Card 1 -->
  <rect x="50" y="82" width="220" height="310" rx="20" fill="#FFFFFF" stroke="#2D2D2D" stroke-width="3"/>
  <circle cx="160" cy="140" r="35" fill="#FF6B6B" stroke="#2D2D2D" stroke-width="3"/>
  <polygon points="160,120 168,135 152,135" fill="#FFFFFF"/>
  <text x="160" y="210" font-family="Fredoka One, sans-serif" font-size="20" fill="#2D2D2D" text-anchor="middle">Fast Setup</text>
  <text x="160" y="238" font-family="Quicksand, sans-serif" font-size="13" fill="#2D2D2D" fill-opacity="0.6" text-anchor="middle">Get running in minutes</text>
  <text x="160" y="258" font-family="Quicksand, sans-serif" font-size="13" fill="#2D2D2D" fill-opacity="0.6" text-anchor="middle">with zero config!</text>
  <rect x="100" y="320" width="120" height="40" rx="20" fill="#FF6B6B" stroke="#2D2D2D" stroke-width="2"/>
  <text x="160" y="346" font-family="Fredoka One, sans-serif" font-size="13" fill="#FFFFFF" text-anchor="middle">Read More</text>
  <!-- Card 2 -->
  <rect x="290" y="82" width="220" height="310" rx="20" fill="#FFFFFF" stroke="#2D2D2D" stroke-width="3"/>
  <rect x="370" y="110" width="60" height="60" rx="8" fill="#4ECDC4" stroke="#2D2D2D" stroke-width="3"/>
  <text x="400" y="210" font-family="Fredoka One, sans-serif" font-size="20" fill="#2D2D2D" text-anchor="middle">Customizable</text>
  <text x="400" y="238" font-family="Quicksand, sans-serif" font-size="13" fill="#2D2D2D" fill-opacity="0.6" text-anchor="middle">Make it yours with</text>
  <text x="400" y="258" font-family="Quicksand, sans-serif" font-size="13" fill="#2D2D2D" fill-opacity="0.6" text-anchor="middle">full theme control!</text>
  <rect x="340" y="320" width="120" height="40" rx="20" fill="#4ECDC4" stroke="#2D2D2D" stroke-width="2"/>
  <text x="400" y="346" font-family="Fredoka One, sans-serif" font-size="13" fill="#FFFFFF" text-anchor="middle">Read More</text>
  <!-- Card 3 -->
  <rect x="530" y="82" width="220" height="310" rx="20" fill="#FFFFFF" stroke="#2D2D2D" stroke-width="3"/>
  <polygon points="640,110 670,160 610,160" fill="#FFE66D" stroke="#2D2D2D" stroke-width="3"/>
  <text x="640" y="210" font-family="Fredoka One, sans-serif" font-size="20" fill="#2D2D2D" text-anchor="middle">Open Source</text>
  <text x="640" y="238" font-family="Quicksand, sans-serif" font-size="13" fill="#2D2D2D" fill-opacity="0.6" text-anchor="middle">Free forever with a</text>
  <text x="640" y="258" font-family="Quicksand, sans-serif" font-size="13" fill="#2D2D2D" fill-opacity="0.6" text-anchor="middle">great community!</text>
  <rect x="580" y="320" width="120" height="40" rx="20" fill="#FFE66D" stroke="#2D2D2D" stroke-width="2"/>
  <text x="640" y="346" font-family="Fredoka One, sans-serif" font-size="13" fill="#2D2D2D" text-anchor="middle">Read More</text>
  <!-- Scattered decorations -->
  <circle cx="770" cy="420" r="15" fill="none" stroke="#FF6B6B" stroke-width="2"/>
  <rect x="20" y="400" width="20" height="20" fill="#4ECDC4" fill-opacity="0.2" stroke="#2D2D2D" stroke-width="1"/>
</svg>