<svg width="800" height="450" viewBox="0 0 800 450" fill="none" xmlns="http://www.w3.org/2000/svg">
  <rect width="800" height="450" fill="#FFFFFF"/>
  <!-- Sidebar -->
  <rect x="0" y="0" width="180" height="450" fill="#FFFFFF" stroke="#2D2D2D" stroke-width="2"/>
  <!-- Decorative shapes in sidebar -->
  <circle cx="155" cy="420" r="12" fill="#FFE66D" fill-opacity="0.3"/>
  <polygon points="140,400 148,385 156,400" fill="#4ECDC4" fill-opacity="0.3"/>
  <text x="24" y="38" font-family="Fredoka One, sans-serif" font-size="18" fill="#FF6B6B">Panel!</text>
  <rect x="12" y="52" width="156" height="38" rx="12" fill="#FF6B6B" stroke="#2D2D2D" stroke-width="2"/>
  <text x="28" y="76" font-family="Quicksand, sans-serif" font-size="13" font-weight="700" fill="#FFFFFF">Dashboard</text>
  <text x="28" y="114" font-family="Quicksand, sans-serif" font-size="13" fill="#2D2D2D" fill-opacity="0.4">Analytics</text>
  <text x="28" y="146" font-family="Quicksand, sans-serif" font-size="13" fill="#2D2D2D" fill-opacity="0.4">Users</text>
  <text x="28" y="178" font-family="Quicksand, sans-serif" font-size="13" fill="#2D2D2D" fill-opacity="0.4">Settings</text>
  <!-- Header -->
  <text x="210" y="38" font-family="Fredoka One, sans-serif" font-size="22" fill="#2D2D2D">Dashboard</text>
  <!-- Stat cards with thick outlines -->
  <rect x="210" y="56" width="178" height="92" rx="16" fill="#FFFFFF" stroke="#2D2D2D" stroke-width="3"/>
  <circle cx="360" cy="70" r="8" fill="#FF6B6B" fill-opacity="0.3"/>
  <text x="228" y="82" font-family="Quicksand, sans-serif" font-size="12" font-weight="600" fill="#2D2D2D" fill-opacity="0.5">Total Users</text>
  <text x="228" y="122" font-family="Fredoka One, sans-serif" font-size="30" fill="#FF6B6B">12,847</text>
  <rect x="404" y="56" width="178" height="92" rx="16" fill="#FFFFFF" stroke="#2D2D2D" stroke-width="3"/>
  <polygon points="560,62 568,75 552,75" fill="#4ECDC4" fill-opacity="0.5"/>
  <text x="422" y="82" font-family="Quicksand, sans-serif" font-size="12" font-weight="600" fill="#2D2D2D" fill-opacity="0.5">Revenue</text>
  <text x="422" y="122" font-family="Fredoka One, sans-serif" font-size="30" fill="#4ECDC4">$48.2K</text>
  <rect x="598" y="56" width="178" height="92" rx="16" fill="#FFFFFF" stroke="#2D2D2D" stroke-width="3"/>
  <rect x="750" y="60" width="16" height="16" rx="2" fill="#FFE66D" fill-opacity="0.5"/>
  <text x="616" y="82" font-family="Quicksand, sans-serif" font-size="12" font-weight="600" fill="#2D2D2D" fill-opacity="0.5">Growth</text>
  <text x="616" y="122" font-family="Fredoka One, sans-serif" font-size="30" fill="#2D2D2D">+24%</text>
  <!-- Chart area -->
  <rect x="210" y="168" width="374" height="262" rx="16" fill="#FFFFFF" stroke="#2D2D2D" stroke-width="3"/>
  <text x="228" y="196" font-family="Fredoka One, sans-serif" font-size="16" fill="#2D2D2D">Activity</text>
  <!-- Colorful rounded bars -->
  <rect x="248" y="350" width="28" height="60" rx="8" fill="#FF6B6B" stroke="#2D2D2D" stroke-width="1"/>
  <rect x="292" y="310" width="28" height="100" rx="8" fill="#4ECDC4" stroke="#2D2D2D" stroke-width="1"/>
  <rect x="336" y="280" width="28" height="130" rx="8" fill="#FFE66D" stroke="#2D2D2D" stroke-width="1"/>
  <rect x="380" y="320" width="28" height="90" rx="8" fill="#FF6B6B" stroke="#2D2D2D" stroke-width="1"/>
  <rect x="424" y="260" width="28" height="150" rx="8" fill="#4ECDC4" stroke="#2D2D2D" stroke-width="1"/>
  <rect x="468" y="300" width="28" height="110" rx="8" fill="#FFE66D" stroke="#2D2D2D" stroke-width="1"/>
  <rect x="512" y="240" width="28" height="170" rx="8" fill="#FF6B6B" stroke="#2D2D2D" stroke-width="1"/>
  <!-- Right panel -->
  <rect x="600" y="168" width="176" height="262" rx="16" fill="#FFFFFF" stroke="#2D2D2D" stroke-width="3"/>
  <text x="616" y="196" font-family="Fredoka One, sans-serif" font-size="16" fill="#FF6B6B">Recent</text>
  <rect x="612" y="210" width="152" height="32" rx="10" fill="#FF6B6B" fill-opacity="0.08" stroke="#2D2D2D" stroke-width="1"/>
  <text x="624" y="232" font-family="Quicksand, sans-serif" font-size="11" fill="#2D2D2D">New signup</text>
  <rect x="612" y="250" width="152" height="32" rx="10" fill="#4ECDC4" fill-opacity="0.08" stroke="#2D2D2D" stroke-width="1"/>
  <text x="624" y="272" font-family="Quicksand, sans-serif" font-size="11" fill="#2D2D2D">Payment received</text>
  <rect x="612" y="290" width="152" height="32" rx="10" fill="#FFE66D" fill-opacity="0.08" stroke="#2D2D2D" stroke-width="1"/>
  <text x="624" y="312" font-family="Quicksand, sans-serif" font-size="11" fill="#2D2D2D">Order shipped</text>
  <rect x="612" y="330" width="152" height="32" rx="10" fill="#FF6B6B" fill-opacity="0.08" stroke="#2D2D2D" stroke-width="1"/>
  <text x="624" y="352" font-family="Quicksand, sans-serif" font-size="11" fill="#2D2D2D">Bug reported</text>
  <rect x="612" y="370" width="152" height="32" rx="10" fill="#4ECDC4" fill-opacity="0.08" stroke="#2D2D2D" stroke-width="1"/>
  <text x="624" y="392" font-family="Quicksand, sans-serif" font-size="11" fill="#2D2D2D">Deploy complete</text>
</svg>