<svg width="800" height="450" viewBox="0 0 800 450" fill="none" xmlns="http://www.w3.org/2000/svg">
  <rect width="800" height="450" fill="#FFFFFF"/>
  <!-- Title -->
  <text x="60" y="50" font-family="Space Grotesk, sans-serif" font-size="28" font-weight="700" fill="#2D2D2D">Features</text>
  <rect x="60" y="60" width="120" height="4" fill="#FF6B6B"/>
  <!-- Card 1 -->
  <rect x="64" y="98" width="210" height="280" fill="#2D2D2D"/>
  <rect x="60" y="94" width="210" height="280" fill="#FFFFFF" stroke="#2D2D2D" stroke-width="3"/>
  <rect x="60" y="94" width="210" height="100" fill="#FF6B6B" stroke="#2D2D2D" stroke-width="3"/>
  <text x="130" y="155" font-family="Space Grotesk, sans-serif" font-size="36" font-weight="700" fill="#FFFFFF" text-anchor="middle">01</text>
  <text x="80" y="224" font-family="Space Grotesk, sans-serif" font-size="18" font-weight="700" fill="#2D2D2D">Fast Setup</text>
  <text x="80" y="250" font-family="Inter, sans-serif" font-size="13" fill="#2D2D2D">Get running in minutes</text>
  <text x="80" y="270" font-family="Inter, sans-serif" font-size="13" fill="#2D2D2D">with zero config needed.</text>
  <rect x="84" y="310" width="120" height="40" fill="#2D2D2D"/>
  <rect x="80" y="306" width="120" height="40" fill="#FFE66D" stroke="#2D2D2D" stroke-width="3"/>
  <text x="108" y="332" font-family="Space Grotesk, sans-serif" font-size="14" font-weight="700" fill="#2D2D2D">Read More</text>
  <!-- Card 2 -->
  <rect x="299" y="98" width="210" height="280" fill="#2D2D2D"/>
  <rect x="295" y="94" width="210" height="280" fill="#FFFFFF" stroke="#2D2D2D" stroke-width="3"/>
  <rect x="295" y="94" width="210" height="100" fill="#4ECDC4" stroke="#2D2D2D" stroke-width="3"/>
  <text x="365" y="155" font-family="Space Grotesk, sans-serif" font-size="36" font-weight="700" fill="#FFFFFF" text-anchor="middle">02</text>
  <text x="315" y="224" font-family="Space Grotesk, sans-serif" font-size="18" font-weight="700" fill="#2D2D2D">Customizable</text>
  <text x="315" y="250" font-family="Inter, sans-serif" font-size="13" fill="#2D2D2D">Make it yours with full</text>
  <text x="315" y="270" font-family="Inter, sans-serif" font-size="13" fill="#2D2D2D">theme control options.</text>
  <rect x="319" y="310" width="120" height="40" fill="#2D2D2D"/>
  <rect x="315" y="306" width="120" height="40" fill="#FFE66D" stroke="#2D2D2D" stroke-width="3"/>
  <text x="343" y="332" font-family="Space Grotesk, sans-serif" font-size="14" font-weight="700" fill="#2D2D2D">Read More</text>
  <!-- Card 3 -->
  <rect x="534" y="98" width="210" height="280" fill="#2D2D2D"/>
  <rect x="530" y="94" width="210" height="280" fill="#FFFFFF" stroke="#2D2D2D" stroke-width="3"/>
  <rect x="530" y="94" width="210" height="100" fill="#FFE66D" stroke="#2D2D2D" stroke-width="3"/>
  <text x="600" y="155" font-family="Space Grotesk, sans-serif" font-size="36" font-weight="700" fill="#2D2D2D" text-anchor="middle">03</text>
  <text x="550" y="224" font-family="Space Grotesk, sans-serif" font-size="18" font-weight="700" fill="#2D2D2D">Open Source</text>
  <text x="550" y="250" font-family="Inter, sans-serif" font-size="13" fill="#2D2D2D">Free forever with a</text>
  <text x="550" y="270" font-family="Inter, sans-serif" font-size="13" fill="#2D2D2D">vibrant community.</text>
  <rect x="554" y="310" width="120" height="40" fill="#2D2D2D"/>
  <rect x="550" y="306" width="120" height="40" fill="#FFE66D" stroke="#2D2D2D" stroke-width="3"/>
  <text x="578" y="332" font-family="Space Grotesk, sans-serif" font-size="14" font-weight="700" fill="#2D2D2D">Read More</text>
  <!-- Bottom bar -->
  <rect x="60" y="410" width="680" height="4" fill="#2D2D2D"/>
</svg>