<svg width="800" height="450" viewBox="0 0 800 450" fill="none" xmlns="http://www.w3.org/2000/svg">
  <rect width="800" height="450" fill="#FFF7ED"/>
  <!-- Background blobs -->
  <ellipse cx="200" cy="100" rx="150" ry="100" fill="#F97316" opacity="0.06"/>
  <ellipse cx="650" cy="380" rx="130" ry="90" fill="#8B5CF6" opacity="0.06"/>
  <text x="400" y="42" text-anchor="middle" font-family="DM Sans, sans-serif" font-size="22" font-weight="700" fill="#1C1917">Our Features</text>
  <!-- Card 1 -->
  <rect x="40" y="65" width="230" height="350" rx="28" fill="#FFFFFF" stroke="#F97316" stroke-width="1.5" stroke-opacity="0.2"/>
  <ellipse cx="155" cy="135" rx="40" ry="35" fill="#F97316" opacity="0.1"/>
  <circle cx="155" cy="135" r="20" fill="#F97316"/>
  <text x="155" y="200" text-anchor="middle" font-family="DM Sans, sans-serif" font-size="18" font-weight="700" fill="#1C1917">Create</text>
  <text x="155" y="225" text-anchor="middle" font-family="DM Sans, sans-serif" font-size="12" fill="#1C1917" opacity="0.5">Beautiful organic designs</text>
  <text x="155" y="243" text-anchor="middle" font-family="DM Sans, sans-serif" font-size="12" fill="#1C1917" opacity="0.5">with natural shapes.</text>
  <rect x="75" y="275" width="160" height="40" rx="20" fill="#F97316"/>
  <text x="155" y="300" text-anchor="middle" font-family="DM Sans, sans-serif" font-size="14" font-weight="600" fill="#FFFFFF">Explore</text>
  <text x="155" y="355" text-anchor="middle" font-family="DM Sans, sans-serif" font-size="11" fill="#1C1917" opacity="0.35">Free to start</text>
  <!-- Card 2 -->
  <rect x="285" y="65" width="230" height="350" rx="28" fill="#FFFFFF" stroke="#8B5CF6" stroke-width="1.5" stroke-opacity="0.2"/>
  <ellipse cx="400" cy="135" rx="40" ry="35" fill="#8B5CF6" opacity="0.1"/>
  <circle cx="400" cy="135" r="20" fill="#8B5CF6"/>
  <text x="400" y="200" text-anchor="middle" font-family="DM Sans, sans-serif" font-size="18" font-weight="700" fill="#1C1917">Collaborate</text>
  <text x="400" y="225" text-anchor="middle" font-family="DM Sans, sans-serif" font-size="12" fill="#1C1917" opacity="0.5">Work together with fluid</text>
  <text x="400" y="243" text-anchor="middle" font-family="DM Sans, sans-serif" font-size="12" fill="#1C1917" opacity="0.5">and intuitive workflows.</text>
  <rect x="320" y="275" width="160" height="40" rx="20" fill="#8B5CF6"/>
  <text x="400" y="300" text-anchor="middle" font-family="DM Sans, sans-serif" font-size="14" font-weight="600" fill="#FFFFFF">Explore</text>
  <text x="400" y="355" text-anchor="middle" font-family="DM Sans, sans-serif" font-size="11" fill="#1C1917" opacity="0.35">Team plan available</text>
  <!-- Card 3 -->
  <rect x="530" y="65" width="230" height="350" rx="28" fill="#FFFFFF" stroke="#22D3EE" stroke-width="1.5" stroke-opacity="0.2"/>
  <ellipse cx="645" cy="135" rx="40" ry="35" fill="#22D3EE" opacity="0.1"/>
  <circle cx="645" cy="135" r="20" fill="#22D3EE"/>
  <text x="645" y="200" text-anchor="middle" font-family="DM Sans, sans-serif" font-size="18" font-weight="700" fill="#1C1917">Grow</text>
  <text x="645" y="225" text-anchor="middle" font-family="DM Sans, sans-serif" font-size="12" fill="#1C1917" opacity="0.5">Scale naturally with</text>
  <text x="645" y="243" text-anchor="middle" font-family="DM Sans, sans-serif" font-size="12" fill="#1C1917" opacity="0.5">organic growth tools.</text>
  <rect x="565" y="275" width="160" height="40" rx="20" fill="#22D3EE"/>
  <text x="645" y="300" text-anchor="middle" font-family="DM Sans, sans-serif" font-size="14" font-weight="600" fill="#FFFFFF">Explore</text>
  <text x="645" y="355" text-anchor="middle" font-family="DM Sans, sans-serif" font-size="11" fill="#1C1917" opacity="0.35">Enterprise ready</text>
</svg>
