<svg width="800" height="450" viewBox="0 0 800 450" fill="none" xmlns="http://www.w3.org/2000/svg">
  <rect width="800" height="450" fill="#FFFFFF"/>
  <text x="400" y="40" font-family="Inter, sans-serif" font-size="22" font-weight="600" fill="#0F172A" text-anchor="middle">Features</text>
  <!-- Card 1 -->
  <rect x="50" y="70" width="220" height="320" rx="8" fill="#FFFFFF" stroke="#E2E8F0" stroke-width="1"/>
  <rect x="80" y="100" width="40" height="40" rx="8" fill="#2563EB" fill-opacity="0.08"/>
  <circle cx="100" cy="120" r="10" fill="#2563EB" fill-opacity="0.2"/>
  <text x="80" y="175" font-family="Inter, sans-serif" font-size="18" font-weight="600" fill="#0F172A">Fast Setup</text>
  <text x="80" y="200" font-family="Inter, sans-serif" font-size="14" fill="#64748B">Get running in minutes</text>
  <text x="80" y="222" font-family="Inter, sans-serif" font-size="14" fill="#64748B">with minimal config.</text>
  <rect x="80" y="320" width="100" height="36" rx="6" fill="#2563EB"/>
  <text x="130" y="344" font-family="Inter, sans-serif" font-size="13" font-weight="500" fill="#FFFFFF" text-anchor="middle">Read More</text>
  <!-- Card 2 -->
  <rect x="290" y="70" width="220" height="320" rx="8" fill="#FFFFFF" stroke="#E2E8F0" stroke-width="1"/>
  <rect x="320" y="100" width="40" height="40" rx="8" fill="#F97316" fill-opacity="0.08"/>
  <circle cx="340" cy="120" r="10" fill="#F97316" fill-opacity="0.2"/>
  <text x="320" y="175" font-family="Inter, sans-serif" font-size="18" font-weight="600" fill="#0F172A">Customizable</text>
  <text x="320" y="200" font-family="Inter, sans-serif" font-size="14" fill="#64748B">Adapt every detail to</text>
  <text x="320" y="222" font-family="Inter, sans-serif" font-size="14" fill="#64748B">match your brand.</text>
  <rect x="320" y="320" width="100" height="36" rx="6" fill="#2563EB"/>
  <text x="370" y="344" font-family="Inter, sans-serif" font-size="13" font-weight="500" fill="#FFFFFF" text-anchor="middle">Read More</text>
  <!-- Card 3 -->
  <rect x="530" y="70" width="220" height="320" rx="8" fill="#FFFFFF" stroke="#E2E8F0" stroke-width="1"/>
  <rect x="560" y="100" width="40" height="40" rx="8" fill="#64748B" fill-opacity="0.08"/>
  <circle cx="580" cy="120" r="10" fill="#64748B" fill-opacity="0.2"/>
  <text x="560" y="175" font-family="Inter, sans-serif" font-size="18" font-weight="600" fill="#0F172A">Open Source</text>
  <text x="560" y="200" font-family="Inter, sans-serif" font-size="14" fill="#64748B">Free forever with a</text>
  <text x="560" y="222" font-family="Inter, sans-serif" font-size="14" fill="#64748B">growing community.</text>
  <rect x="560" y="320" width="100" height="36" rx="6" fill="#2563EB"/>
  <text x="610" y="344" font-family="Inter, sans-serif" font-size="13" font-weight="500" fill="#FFFFFF" text-anchor="middle">Read More</text>
</svg>